HIERARCHY
ROOT hip
{
	OFFSET 0.000000 0.000000 0.000000 
	CHANNELS 6 Xposition Yposition Zposition Xrotation Zrotation Yrotation
	JOINT abdomen
	{
		OFFSET 0.000000 3.402643 0.000000 
		CHANNELS 3 Xrotation Zrotation Yrotation
		JOINT chest
		{
			OFFSET 0.000000 8.438565 -0.680529 
			CHANNELS 3 Xrotation Zrotation Yrotation
			JOINT neck
			{
				OFFSET 0.000000 10.207942 -0.272212 
				CHANNELS 3 Xrotation Zrotation Yrotation
				JOINT head
				{
					OFFSET 0.000000 3.130431 0.000000 
					CHANNELS 3 Xrotation Zrotation Yrotation
					End Site
					{
						OFFSET 0.000000 3.130435 0.000000 
					}
				}
			}
			JOINT lCollar
			{
				OFFSET 3.470700 6.669187 -0.816635 
				CHANNELS 3 Yrotation Zrotation Xrotation
				JOINT lShldr
				{
					OFFSET 3.198488 0.000000 0.000000 
					CHANNELS 3 Zrotation Yrotation Xrotation
					JOINT lForeArm
					{
						OFFSET 10.139888 0.000000 0.000000 
						CHANNELS 3 Yrotation Zrotation Xrotation
						JOINT lHand
						{
							OFFSET 8.370511 0.000000 0.000000 
							CHANNELS 3 Zrotation Yrotation Xrotation
							End Site
							{
								OFFSET 4.083176 0.000000 0.000000 
							}
						}
					}
				}
			}
			JOINT rCollar
			{
				OFFSET -3.470700 6.669187 -0.816635 
				CHANNELS 3 Yrotation Zrotation Xrotation
				JOINT rShldr
				{
					OFFSET -3.198488 0.000000 0.000000 
					CHANNELS 3 Zrotation Yrotation Xrotation
					JOINT rForeArm
					{
						OFFSET -10.139888 0.000000 0.000000 
						CHANNELS 3 Yrotation Zrotation Xrotation
						JOINT rHand
						{
							OFFSET -8.370511 0.000000 0.000000 
							CHANNELS 3 Zrotation Yrotation Xrotation
							End Site
							{
								OFFSET -4.083176 0.000000 0.000000 
							}
						}
					}
				}
			}
		}
	}
	JOINT lThigh
	{
		OFFSET 5.308129 -1.633274 1.361059 
		CHANNELS 3 Xrotation Zrotation Yrotation
		JOINT lShin
		{
			OFFSET -2.041588 -20.007561 0.000000 
			CHANNELS 3 Xrotation Zrotation Yrotation
			JOINT lFoot
			{
				OFFSET 0.000000 -19.190928 -1.224953 
				CHANNELS 3 Xrotation Yrotation Zrotation
				End Site
				{
					OFFSET 0.000000 -2.449906 4.627600 
				}
			}
		}
	}
	JOINT rThigh
	{
		OFFSET -5.308129 -1.633274 1.361059 
		CHANNELS 3 Xrotation Zrotation Yrotation
		JOINT rShin
		{
			OFFSET 2.041588 -20.007561 0.000000 
			CHANNELS 3 Xrotation Zrotation Yrotation
			JOINT rFoot
			{
				OFFSET 0.000000 -19.190928 -1.224953 
				CHANNELS 3 Xrotation Yrotation Zrotation
				End Site
				{
					OFFSET 0.000000 -2.449906 4.627600 
				}
			}
		}
	}
}
MOTION
Frames: 16
Frame Time: 0.033333
-51.503296 29.236673 51.144455 -3.378906 7.001954 -46.473423 28.494259 -15.511959 -9.384670 -25.546877 12.138672 5.654297 51.063168 8.107644 2.471410 -53.408203 -9.843749 -5.937501 2.000000 -2.000000 0.000000 -86.572266 12.626954 -0.329895 -48.298771 -1.897943 -1.900139 8.776989 65.004395 11.140481 -2.000000 2.000000 0.000000 88.818359 -4.794922 3.320313 51.602600 1.679406 -2.011283 -1.933834 -52.410004 2.375092 -86.611214 11.728588 -2.480038 106.444649 0.400332 -4.972084 -10.826886 13.104897 -3.468689 -14.149777 -2.822061 -10.555830 105.976463 -1.904411 4.212255 12.613770 -11.535919 28.951891 
-51.510357 29.166784 51.103500 -3.720703 7.011719 -46.708984 28.519131 -15.656440 -9.475561 -25.556641 11.962891 5.636790 51.063168 8.107644 2.471410 -53.437500 -10.019530 -5.937501 2.000000 -2.000000 0.000000 -86.406250 12.646484 -0.830078 -48.299854 -2.017778 -1.942023 9.618571 64.748840 11.743832 -2.000000 2.000000 0.000000 88.671875 -4.921875 3.212891 51.426815 1.679406 -2.011283 -1.808320 -52.234089 2.123904 -86.465721 11.922471 -2.974559 106.279991 0.377120 -4.958126 -10.511395 13.208194 -3.461823 -14.290665 -2.478709 -10.395707 106.366753 -1.416442 4.775226 12.740143 -12.597686 29.711084 
-51.517414 29.088905 51.062412 -3.896484 7.011719 -46.883575 28.545164 -15.810001 -9.569933 -25.556641 11.962891 5.636790 51.063168 8.107644 2.471410 -53.251957 -10.029296 -5.966798 2.000000 -2.000000 0.000000 -86.425781 12.685547 -0.847465 -48.298771 -1.897943 -1.900139 10.344293 64.473267 11.771411 -2.000000 2.000000 0.000000 88.496094 -4.951172 3.261719 51.426815 1.679406 -2.011283 -1.809230 -51.882530 2.114146 -86.538933 12.147899 -3.879833 106.098869 0.328913 -5.155409 -10.408242 13.272825 -2.790596 -14.537895 -1.893959 -11.170651 106.669044 -1.963401 4.184595 12.735845 -13.206301 30.201328 
-51.524479 29.003277 51.021461 -4.277344 7.001954 -47.117950 28.547249 -16.058453 -9.494465 -25.556643 11.787109 5.625000 51.063168 8.107644 2.471410 -53.271484 -10.205078 -5.958763 2.000000 -2.000000 0.000000 -86.298828 12.880859 -1.150167 -48.299854 -2.017778 -1.942023 10.892136 64.059418 12.191777 -2.000000 2.000000 0.000000 88.457031 -4.833984 3.271484 51.250755 1.688586 -2.000970 -1.737499 -51.726208 2.321985 -86.389725 12.352633 -4.335318 105.928001 0.367871 -4.966124 -10.255076 13.782253 -2.881212 -14.674264 -1.561481 -11.002617 106.893707 -1.494206 4.710329 12.814832 -14.128349 30.977680 
-51.531540 28.909660 50.980370 -4.609375 7.001954 -47.167969 28.573362 -16.206251 -9.573685 -25.380857 11.787110 5.675823 51.063168 8.107644 2.471410 -53.105469 -10.400391 -5.812310 2.000000 -2.000000 0.000000 -86.308594 12.890625 -1.335712 -48.299854 -2.017778 -1.942023 11.346274 63.801048 12.135948 -2.000000 2.000000 0.000000 88.291016 -4.863282 3.115234 51.250755 1.688586 -2.000970 -1.530710 -51.384251 2.257374 -86.472504 12.577603 -5.224159 105.762642 0.347942 -4.966820 -9.915405 13.783119 -2.736468 -14.957508 -1.190628 -11.234739 107.595352 -1.542904 4.712580 12.956356 -14.611313 31.563845 
-51.538483 28.800423 50.939411 -4.970703 6.992188 -47.371857 28.784435 -16.352983 -9.686516 -25.390627 11.611329 5.830079 51.063168 8.107644 2.471410 -53.105469 -10.400391 -5.812310 2.000000 -2.000000 0.000000 -86.484375 12.919922 -1.560316 -48.299854 -2.017778 -1.942023 12.018037 63.526150 12.369209 -2.000000 2.000000 0.000000 88.164063 -5.078125 3.154297 51.250755 1.688586 -2.000970 -1.540039 -51.208477 2.266805 -86.311378 12.587375 -5.560868 105.546837 0.837220 -4.900193 -9.631642 14.163854 -2.942003 -15.024499 -0.624037 -11.623511 107.937401 -1.552671 4.703555 13.194248 -15.496260 32.588264 
-51.545540 28.706808 50.898441 -5.312500 6.806641 -47.578129 28.786306 -16.594568 -9.629586 -25.390627 11.611329 5.830079 51.063168 8.107644 2.471410 -52.939453 -10.595702 -5.830078 2.000000 -2.000000 0.000000 -86.318359 12.939453 -1.689453 -48.299854 -2.017778 -1.942023 12.747993 63.057125 12.844348 -2.000000 2.000000 0.000000 88.007813 -5.107422 2.831162 51.076260 1.857732 -2.049804 -1.802814 -50.837601 2.456340 -86.368790 12.801731 -6.244368 105.370979 0.827120 -4.908421 -9.665254 14.427412 -2.551011 -15.256914 -0.203768 -12.373312 108.249336 -2.109275 4.108358 13.111464 -15.922491 32.958427 
-51.552593 28.589703 50.857368 -5.693360 6.806641 -47.792973 28.814144 -16.751390 -9.715123 -25.205078 11.611329 5.869142 51.063168 8.107644 2.471410 -52.939453 -10.595702 -5.830078 2.000000 -2.000000 0.000000 -86.318359 12.939453 -1.884766 -48.299854 -2.017778 -1.942023 13.014934 62.816566 12.653916 -2.000000 2.000000 0.000000 87.958984 -4.951172 2.626112 51.076260 1.857732 -2.049804 -1.667543 -50.681229 2.518025 -86.249054 13.006799 -6.925560 105.175972 0.814937 -4.908047 -9.462965 14.693557 -2.228652 -15.529698 0.167452 -12.599558 108.601639 -2.119141 4.085740 13.352410 -16.460985 34.150230 
-51.559654 28.480349 50.816399 -6.035156 6.806641 -47.998051 28.835119 -16.983822 -9.654969 -25.214846 11.435548 5.859375 51.063168 8.107644 2.471410 -52.783203 -10.791015 -5.849610 2.000000 -2.000000 0.000000 -86.328125 12.949219 -2.070313 -48.299854 -2.017778 -1.942023 13.909790 62.653652 13.001287 -2.000000 2.000000 0.000000 87.763672 -4.970703 2.861328 51.074711 1.688017 -1.991225 -1.333319 -50.339222 2.192434 -86.298180 13.241472 -7.758740 105.022827 0.687653 -5.236287 -9.146414 15.032060 -2.280158 -15.618608 0.508800 -12.638024 108.969322 -1.884683 4.440415 13.482873 -17.072741 34.408382 
-51.566711 28.363129 50.775322 -6.201172 6.806765 -48.025684 28.881632 -17.293957 -9.835505 -25.214846 11.435548 5.859375 51.063168 8.107644 2.471410 -52.802738 -10.957031 -5.849610 2.000000 -2.000000 0.000000 -86.386719 13.125001 -2.263406 -48.299606 -2.007459 -1.932848 14.402699 62.192165 13.362702 -2.000000 2.000000 0.000000 87.607422 -5.019532 2.714844 50.908409 1.697198 -1.980912 -1.333700 -49.987656 2.192455 -86.412987 13.837747 -8.813909 105.030647 0.661585 -5.584016 -9.332810 15.136434 -2.725362 -15.759297 0.703311 -12.816336 109.149750 -1.953138 4.244939 13.701772 -17.662703 35.204922 
-51.573769 28.261757 50.734352 -6.552734 6.806641 -48.261719 28.909756 -17.447309 -9.930423 -25.039064 11.250001 5.869142 51.063168 8.107644 2.471410 -52.626953 -10.966796 -5.880764 2.000000 -2.000000 0.000000 -86.210938 13.134767 -2.390357 -48.299606 -2.007459 -1.932848 14.850918 61.886536 13.227007 -2.000000 2.000000 0.000000 87.626953 -5.087891 2.743275 50.908409 1.697198 -1.980912 -1.007561 -49.811787 1.905531 -86.259377 14.032677 -9.428845 104.824173 0.687763 -5.582002 -9.189803 15.542661 -2.308291 -15.952699 1.260342 -13.217968 109.683983 -1.933598 4.617008 13.627606 -18.823162 36.295506 
-51.828003 28.536818 50.437767 -6.923828 7.324219 -48.699924 28.577921 -17.881453 -9.893220 -25.039064 11.250001 5.869142 51.063168 8.107644 2.471410 -52.285160 -11.357420 -5.410157 2.000000 -2.000000 0.000000 -86.455078 12.529297 -2.333985 -48.122990 -1.897943 -1.900139 14.224008 61.886513 13.655676 -2.000000 2.000000 0.000000 87.587891 -5.478516 2.577193 50.732628 1.697198 -1.980912 -0.599075 -49.157551 2.168736 -80.351318 11.728409 -17.309713 103.707664 1.257159 -4.699661 -3.658154 18.536102 -8.752578 -16.189037 1.650094 -13.748418 109.858940 -1.947005 4.628096 13.975431 -19.663534 36.971382 
-52.052956 28.358614 50.184811 -7.294922 7.832032 -49.160156 28.249926 -18.056038 -9.902619 -24.863281 11.074220 5.888671 51.063168 8.107644 2.471410 -51.777344 -11.572264 -4.970704 2.000000 -2.000000 0.000000 -86.611328 12.294922 -3.132685 -47.947765 -2.016639 -1.922532 15.085179 62.017338 15.470736 -2.000000 2.000000 0.000000 87.431641 -5.996094 2.441406 50.556568 1.706378 -1.970309 0.008365 -49.538845 1.995740 -72.611206 10.558420 -25.405178 100.751816 1.005985 -4.817343 6.672686 22.916210 -15.680769 -16.248642 2.021573 -14.177140 110.212685 -1.982345 4.800554 14.532605 -20.666498 37.942875 
-52.202576 28.796488 49.985546 -7.636719 7.988281 -49.404297 27.888542 -17.997353 -10.002471 -24.697268 10.888673 5.908204 51.063168 8.107644 2.471410 -51.416016 -11.777344 -4.718791 2.000000 -2.000000 0.000000 -86.464844 12.363281 -3.994141 -48.123005 -1.888194 -1.900710 16.581829 62.140625 16.837584 -2.000000 2.000000 0.000000 87.421875 -6.542969 2.519531 50.556568 1.706378 -1.970309 -0.591123 -50.388023 2.149506 -63.431469 10.988462 -32.918259 96.378868 0.595192 -5.086347 20.561739 25.758121 -23.107590 -16.490902 2.382935 -14.378531 110.388016 -1.835920 4.718705 15.211902 -21.312401 39.150070 
-52.216808 29.327286 49.853977 -7.832032 8.007812 -49.794918 27.319046 -17.547436 -10.054461 -24.531250 10.351563 6.066209 51.063168 8.107644 2.471410 -51.240234 -11.621094 -4.580079 2.000000 -2.000000 0.000000 -86.201172 12.529298 -5.556641 -48.475670 -1.998280 -1.943164 19.220520 61.800732 18.837542 -2.000000 2.000000 0.000000 87.324219 -7.226563 3.524162 50.556553 1.716127 -1.969740 -2.413398 -51.805195 1.964856 -53.930088 12.687520 -38.130848 93.410057 0.185061 -5.166909 30.933260 23.971878 -28.902870 -16.594162 2.597906 -14.752011 110.717758 -2.041447 4.558374 15.738483 -22.037720 39.916595 
-52.149357 29.473665 49.781540 -7.988280 7.822266 -50.135395 26.392429 -16.894360 -10.115569 -24.375000 9.648438 6.035157 51.063168 8.107644 2.471410 -51.191410 -11.093750 -4.580079 2.000000 -2.000000 0.000000 -86.259766 13.261719 -6.638382 -48.827515 -1.989099 -1.953479 22.279024 62.094208 21.484112 -2.000000 2.000000 0.000000 87.431641 -8.173828 4.736328 50.556553 1.716127 -1.969740 -5.621011 -53.818279 2.726335 -43.225235 16.037291 -38.889702 90.777344 0.058435 -5.357991 33.689625 19.887060 -28.115175 -16.574062 2.636980 -15.111551 110.893051 -2.051257 4.564490 16.267397 -23.101782 40.916306 
